<?xml version="1.0" encoding="UTF-8"?>
<svg id="logosandtypes_com" data-name="logosandtypes com" xmlns="http://www.w3.org/2000/svg" viewBox="0 0 150 150">
  <defs>
    <style>
      .cls-1 {
        fill: none;
      }

      .cls-2 {
        fill: #004e87;
        fill-rule: evenodd;
      }
    </style>
  </defs>
  <path id="Layer_3" data-name="Layer 3" class="cls-1" d="M0,0H150V150H0V0Z"/>
  <path id="C" class="cls-2" d="M133.14,3.87c-.51,12.02-8.98,23.2-24.04,23.2-1.91,0-3.65-.16-5.25-.55V121.56c9.68-1.23,18.44-5.39,26.52-11.05l.69,2.08c-8.94,10.43-25.83,27.49-51.94,27.49-35.52,0-61.61-24.12-61.61-65.34,0-37.8,31.18-58.77,51.39-66.59l1.66,.83c-19.05,12.65-29.28,27.93-29.28,54.57,0,23.49,8.43,40.2,21.14,50l4.28-2.9V37.72c0-6.69-.97-8.98-4.14-9.81v-.56c12.71-6.35,32.88-17.27,44.07-26.11,3.45,4.03,7.75,5.8,13.12,5.8,5.86,0,9.81-2.08,12.43-4.01l.97,.83Zm-31.5,117.97V25.83c-5.04-1.92-8.56-5.87-11.74-10.5l-.69,.28V98.22l-25.14,16.72c8.61,5.96,21.15,7.04,33.98,7.04,1.21,0,2.41-.04,3.59-.13Z"/>
</svg>